<svg width="100" height="156" viewBox="0 0 100 156" fill="none" xmlns="http://www.w3.org/2000/svg">
<path d="M50 0C77.6142 0 100 24.1766 100 54C100 65.9027 96.4304 76.9033 90.3896 85.8291L51.2666 155.627L10.7168 87.4102C4.00528 78.2184 0 66.6144 0 54C0 24.1766 22.3858 0 50 0Z" fill="#505050"/>
<path d="M72.2301 27.3343C74.7437 26.9437 78.7738 26.8842 80.317 27.2152C81.6835 27.5082 83.1521 28.516 83.6686 29.515C84.5911 31.2993 83.5568 34.6433 80.9342 38.3548C79.7856 39.9804 76.2926 44.2352 73.8395 46.9984C72.823 48.143 72.8069 48.1857 73.3102 48.3392C73.5959 48.4263 74.0095 48.656 74.2291 48.8489C75.1399 49.6488 74.3024 51.1067 73.3473 50.3841C73.1102 50.2046 72.4926 50.0541 71.9752 50.0501C71.0635 50.043 70.9238 50.1525 67.5201 53.5443C49.0061 71.9931 31.9997 83.1115 22.0895 83.2464C20.1585 83.2727 19.7791 83.208 18.653 82.6566C17.1292 81.9103 16.4324 81.0317 16.1041 79.4437C15.2337 75.2332 19.8955 68.2422 27.2819 62.681C32.8598 58.4817 40.099 54.766 48.7018 51.6878C54.8757 49.4789 60.3504 48.2312 66.1012 47.722L69.1901 47.4486L71.5553 44.9193C77.2165 38.8635 81.0041 33.4883 81.0201 31.4876C81.0293 30.3681 80.1805 30.054 77.152 30.057C74.4364 30.0595 73.3546 30.2179 68.4616 31.3294C53.4854 34.7313 31.2086 46.2798 21.9196 55.4573C19.6811 57.6689 19.7087 57.8238 22.233 57.2415C25.4797 56.4922 29.5905 54.7301 32.9586 52.6439C34.6109 51.6205 35.6103 51.4045 36.4957 51.8782C38.2393 52.812 34.7368 55.7982 28.7262 58.5023C24.4346 60.433 19.7098 61.3336 18.1334 60.5218C16.6871 59.7769 16.1003 58.4782 16.5836 57.0921C17.8497 53.4608 28.3015 45.3357 39.5641 39.2269C50.0617 33.533 63.2595 28.7278 72.2301 27.3343ZM66.1774 50.4427C66.1146 50.3872 64.9829 50.5205 63.6637 50.7396C51.9654 52.6829 38.306 58.3187 29.3619 64.8919C23.8005 68.9793 19.3828 74.6127 18.9616 78.1546C18.8677 78.9422 18.9304 79.2884 19.2174 79.5755C20.7708 81.1288 25.4673 80.3109 31.4069 77.4525C37.2498 74.6404 44.5621 69.7219 51.443 63.9749C56.1349 60.0562 66.3798 50.647 66.1774 50.4427Z" fill="#FFFCFC"/>
<path fill-rule="evenodd" clip-rule="evenodd" d="M72.1671 55.8807C71.5506 56.3125 71.5152 56.9228 72.0771 57.4313C72.6201 57.9227 73.0964 57.9099 73.5656 57.3916C74.0597 56.8456 74.0426 56.5377 73.4868 55.9819C72.9367 55.4318 72.8205 55.4229 72.1671 55.8807Z" fill="#FFFCFC"/>
</svg>
