<svg width="485" height="401" viewBox="0 0 485 401" fill="none" xmlns="http://www.w3.org/2000/svg">
<path id="assinatura" d="M400.852 2.385C418.771 -0.399579 447.498 -0.821169 458.498 1.53832C468.239 3.62762 478.708 10.8077 482.39 17.9289C488.967 30.6487 481.595 54.4875 462.898 80.9465C454.711 92.5346 429.812 122.87 412.324 142.568C405.078 150.728 404.958 151.029 408.546 152.123C410.583 152.744 413.534 154.378 415.101 155.754C421.595 161.457 415.622 171.853 408.811 166.698C407.121 165.418 402.718 164.346 399.029 164.319C392.53 164.268 391.538 165.047 367.274 189.226C235.291 320.745 114.054 400.01 43.4072 400.969C29.6419 401.156 26.9413 400.692 18.9131 396.761C8.05007 391.441 3.08124 385.179 0.741185 373.859C-5.46443 343.843 27.7675 294.005 80.4228 254.361C120.186 224.425 171.794 197.938 233.121 175.994C277.133 160.247 316.159 151.351 357.155 147.721L379.18 145.772L396.036 127.741C436.394 84.5715 463.397 46.2544 463.511 31.9924C463.576 24.0114 457.525 21.774 435.935 21.7952C416.576 21.8131 408.865 22.9435 373.982 30.8674C267.221 55.1183 108.419 137.441 42.2002 202.865C26.2415 218.632 26.4357 219.738 44.4316 215.587C67.5766 210.246 96.8832 197.683 120.895 182.811C132.673 175.515 139.795 173.974 146.106 177.351C158.54 184.006 133.571 205.295 90.7217 224.573C60.128 238.336 26.4468 244.758 15.209 238.971C4.89762 233.661 0.714329 224.403 4.16013 214.522C13.1837 188.636 87.6928 130.711 167.983 87.1614C242.819 46.5707 336.902 12.3185 400.852 2.385ZM357.697 167.114C357.247 166.718 349.187 167.672 339.784 169.234C256.388 183.087 159.01 223.264 95.25 270.124C55.604 299.262 24.1154 339.416 21.1123 364.665C20.443 370.281 20.887 372.752 22.9336 374.799C34.0072 385.873 67.492 380.04 109.835 359.661C151.487 339.615 203.611 304.553 252.663 263.584C286.133 235.63 359.243 168.481 357.697 167.114Z" fill="#FFFCFC" stroke="white" stroke-linecap="round" stroke-linejoin="round"/>
<path fill-rule="evenodd" clip-rule="evenodd" d="M400.4 205.883C396.005 208.961 395.753 213.312 399.759 216.937C403.63 220.44 407.025 220.349 410.37 216.654C413.892 212.762 413.77 210.567 409.808 206.605C405.887 202.683 405.058 202.62 400.4 205.883Z" fill="#FFFCFC"/>
</svg>
